<svg xmlns="http://www.w3.org/2000/svg" width="3699" height="2014" viewBox="0 0 3699 2014">
  <defs>
    <style>
      .cls-1 {
        fill-rule: evenodd;
      }
    </style>
  </defs>
  <path id="JLR" class="cls-1" d="M206.752-9.186V173.329H602.205V1630.45q0,103.44-53.234,152.1-53.25,48.675-147.531,48.67-91.266,0-142.985-48.67-51.7-48.66-51.7-152.1v-209.9H-6.185v197.73q0,197.745,109.5,296.6t298.125,98.86q188.6,0,301.156-98.86t112.562-296.6V-9.186H206.752ZM1454.17,1968.11H2223.8V1785.59H1667.11V-9.186H1454.17v1977.3Zm1407.94,0V1268.45h246.41l355.9,699.66h234.24L3324.5,1238.03q133.83-42.585,200.77-144.5,66.915-101.91,66.92-250.966V416.689q0-197.72-120.16-311.8T3108.52-9.186H2649.17v1977.3h212.94ZM3379.25,842.564q0,112.569-66.92,177.966t-203.81,65.39H2862.11V173.329h246.41q133.83,0,202.28,65.406,68.43,65.415,68.45,177.954V842.564Z"/>
</svg>
